<svg width="24" height="24" viewBox="0 0 24 24" fill="none" xmlns="http://www.w3.org/2000/svg">
<path d="M15.7086 4.6698L13.8571 4.66675C11.777 4.66675 10.4328 6.08347 10.4328 8.27623V9.94045H8.57116C8.4103 9.94045 8.28003 10.0744 8.28003 10.2397V12.6509C8.28003 12.8162 8.41044 12.95 8.57116 12.95H10.4328V19.0344C10.4328 19.1996 10.563 19.3334 10.7239 19.3334H13.1528C13.3136 19.3334 13.4439 19.1994 13.4439 19.0344V12.95H15.6206C15.7814 12.95 15.9117 12.8162 15.9117 12.6509L15.9126 10.2397C15.9126 10.1603 15.8818 10.0843 15.8273 10.0282C15.7728 9.97203 15.6985 9.94045 15.6213 9.94045H13.4439V8.52967C13.4439 7.8516 13.6012 7.50737 14.4611 7.50737L15.7083 7.50691C15.8691 7.50691 15.9993 7.37295 15.9993 7.20785V4.96886C15.9993 4.80392 15.8692 4.6701 15.7086 4.6698Z" fill="#535353"/>
<rect x="0.5" y="0.5" width="23" height="23" rx="11.5" stroke="#FF6F0F" stroke-opacity="0.5"/>
</svg>
