<svg width="45" height="44" viewBox="0 0 45 44" fill="none" xmlns="http://www.w3.org/2000/svg">
<rect width="44" height="44" rx="22" fill="#FF860D"/>
<path d="M30 26H16.9675C15.9632 26 15.1147 25.2553 14.9844 24.2596L13.8114 15.2996C13.7504 14.834 13.5276 14.4048 13.1821 14.087L12 13" stroke="white" stroke-width="1.5" stroke-linecap="round"/>
<path d="M28.361 24H15.6325C15.3053 24 15.03 23.7551 14.9918 23.4302L14.017 15.1441C14.0079 15.0674 14.0679 15 14.1451 15H31.0875C31.5328 15 31.8442 15.4404 31.6958 15.8602L28.9692 23.57C28.8781 23.8277 28.6344 24 28.361 24Z" stroke="white" stroke-width="1.5" stroke-linecap="round"/>
<circle cx="18" cy="28" r="2" stroke="white" stroke-width="1.5"/>
<circle cx="26" cy="28" r="2" stroke="white" stroke-width="1.5"/>
<path d="M45 10C45 13.3137 42.3137 16 39 16C35.6863 16 33 13.3137 33 10C33 6.68629 35.6863 4 39 4C42.3137 4 45 6.68629 45 10Z" fill="black"/>
<path d="M38.768 12.08C40.288 12.08 41.248 11.048 41.248 9.32C41.248 7.6 40.288 6.56 38.768 6.56C37.24 6.56 36.28 7.6 36.28 9.32C36.28 11.048 37.24 12.08 38.768 12.08ZM38.768 11.536C37.52 11.536 36.88 10.816 36.88 9.32C36.88 7.824 37.52 7.104 38.768 7.104C40.008 7.104 40.648 7.824 40.648 9.32C40.648 10.816 40.008 11.536 38.768 11.536Z" fill="white"/>
</svg>
