<svg width="150" height="150" viewBox="0 0 150 150" fill="none" xmlns="http://www.w3.org/2000/svg">
<circle cx="75" cy="75" r="75" fill="#3F3C3A"/>
<path d="M71.2632 125.02C68.0553 124.793 65.683 126.806 65.4466 130.142C65.2102 133.477 67.2748 135.805 70.4827 136.032C73.6588 136.257 76.031 134.244 76.2675 130.908C76.5039 127.573 74.4393 125.245 71.2632 125.02ZM71.1852 126.121C73.8824 126.312 75.2763 127.919 75.0705 130.824C74.8646 133.728 73.258 135.122 70.5608 134.931C67.8476 134.739 66.4377 133.131 66.6436 130.226C66.8495 127.322 68.472 125.929 71.1852 126.121Z" fill="#FF6F0F"/>
<path d="M58.6845 122.708L57.1685 126.719C56.5406 128.381 55.5256 129.075 54.029 128.509C52.7419 128.022 52.45 127.211 52.9251 125.954L53.1401 125.385L52.0775 124.983L51.8003 125.717C51.2799 127.093 51.553 128.634 53.2592 129.278C54.8008 129.861 56.0122 129.19 56.6836 128.093L56.7585 128.121L55.9948 130.141L56.9526 130.503L59.7472 123.11L58.6845 122.708Z" fill="#FF6F0F"/>
<path d="M45.0177 116.409C43.5467 115.33 42.0749 115.362 41.0979 116.154L41.0334 116.106L42.2537 114.442C43.4173 112.855 44.4314 112.824 46.0831 114.035C47.5025 115.076 47.9293 116.063 47.1063 117.186L48.0225 117.858C49.1104 116.374 48.428 114.544 46.6989 113.277C44.7762 111.867 42.8417 111.719 41.2997 113.822L37.0711 119.59L37.8969 120.195L39.0983 118.556L39.1628 118.604C38.5884 119.929 39.183 121.337 40.525 122.32C42.4864 123.758 44.604 123.386 45.8812 121.644C47.1583 119.902 46.9145 117.799 45.0177 116.409ZM44.965 120.973C43.773 122.599 42.3468 122.406 40.9145 121.356C39.4435 120.278 39.0373 118.829 39.9549 117.578L40.1157 117.358C41.109 116.003 42.6023 115.888 44.1765 117.042C45.5572 118.054 46.157 119.347 44.965 120.973Z" fill="#FF6F0F"/>
<path d="M35.6796 106.582C34.5554 105.125 33.0463 104.531 31.6102 105.053L31.5613 104.99L33.246 103.69L32.6204 102.879L28.7063 105.9C27.3257 106.965 26.8619 108.617 28.3282 110.517C29.814 112.442 31.7313 112.7 33.0487 111.684L33.0994 111.645L32.4053 110.745L32.3547 110.785C31.2526 111.635 30.2239 111.297 29.1877 109.954C28.132 108.586 28.2028 107.683 29.4188 106.744L29.9002 106.373L32.5266 109.096C33.5526 110.163 34.6509 110.67 35.6769 109.878C36.6902 109.096 36.6278 107.81 35.6796 106.582ZM34.9195 109.027C34.2735 109.526 33.6936 109.246 32.8816 108.377L30.4955 105.914L30.5462 105.875C32.0535 104.711 33.6535 105.397 34.8265 106.917C35.5596 107.867 35.5529 108.539 34.9195 109.027Z" fill="#FF6F0F"/>
<path d="M28.7933 95.9912L25.2369 97.3965C23.3471 98.1433 21.8904 97.6351 21.1848 95.8495C20.5203 94.168 21.1101 93.0919 22.6279 92.4922L26.7647 90.8575L26.3472 89.801L22.0616 91.4945C20.3206 92.1824 19.2532 93.7913 20.0705 95.8597C20.7938 97.6899 22.4107 98.2553 23.7606 98.0143L23.79 98.0887L21.4836 99.0001L21.8599 99.9525L29.2108 97.0477L28.7933 95.9912Z" fill="#FF6F0F"/>
<path d="M15.8731 83.1267L14.0838 83.3859L14.2466 84.5102L16.036 84.251L15.8731 83.1267ZM24.6931 81.8493L16.8707 82.9822L17.0336 84.1065L24.8559 82.9736L24.6931 81.8493Z" fill="#FF6F0F"/>
<path d="M24.5198 70.4852C24.7153 68.2859 23.5614 66.4485 21.6649 66.28L21.5374 66.2686L21.4383 67.3842L21.5339 67.3927C22.9364 67.5174 23.6425 68.6082 23.4825 70.4091C23.2955 72.5128 22.0832 73.3206 20.1548 73.1492C18.2264 72.9778 17.1756 71.9688 17.3626 69.8651C17.5227 68.0642 18.4102 67.1151 19.8127 67.2397L19.9083 67.2482L20.0075 66.1326L19.88 66.1213C17.9834 65.9527 16.5236 67.5577 16.3281 69.7571C16.1043 72.2751 17.6636 74.0683 20.0542 74.2808C22.4448 74.4933 24.296 73.0033 24.5198 70.4852Z" fill="#FF6F0F"/>
<path d="M26.7377 58.8094L24.6207 58.1278L24.1893 59.4681L26.3063 60.1496L26.7377 58.8094Z" fill="#FF6F0F"/>
<path d="M36.4704 41.8779C38.5633 39.4361 38.3586 36.3314 35.8197 34.1552C33.2807 31.9789 30.1812 32.2513 28.0883 34.6931C26.0161 37.1105 26.2209 40.2152 28.7598 42.3915C31.2987 44.5678 34.3982 44.2953 36.4704 41.8779ZM35.6322 41.1594C33.8724 43.2124 31.7517 43.3755 29.5407 41.4804C27.3298 39.5853 27.1667 37.4646 28.9265 35.4115C30.6966 33.3464 32.8278 33.1711 35.0387 35.0663C37.2496 36.9614 37.4023 39.0943 35.6322 41.1594Z" fill="#FF6F0F"/>
<path d="M45.8182 33.1492L43.4987 29.5427C42.538 28.049 42.5849 26.8204 43.9306 25.9549C45.0879 25.2106 45.9138 25.4594 46.6408 26.5898L46.9697 27.1011L47.9251 26.4866L47.501 25.8272C46.7048 24.5892 45.3049 23.8915 43.7708 24.8782C42.3847 25.7697 42.2023 27.1425 42.6842 28.3354L42.6169 28.3787L41.4485 26.562L40.5873 27.1159L44.8628 33.7637L45.8182 33.1492Z" fill="#FF6F0F"/>
<path d="M59.0183 25.9202C60.7607 25.3807 61.6114 24.1793 61.5574 22.923L61.6338 22.8994L62.2443 24.871C62.8265 26.7509 62.2469 27.5836 60.2905 28.1894C58.6093 28.7101 57.5619 28.4649 57.1501 27.1352L56.065 27.4713C56.6093 29.2289 58.4853 29.7702 60.5334 29.136C62.8107 28.4308 64.082 26.9651 63.3106 24.4738L61.1949 17.6419L60.2168 17.9448L60.8178 19.8859L60.7414 19.9095C60.0193 18.6592 58.5341 18.2984 56.9445 18.7906C54.6214 19.51 53.659 21.4327 54.298 23.4961C54.9369 25.5594 56.7716 26.616 59.0183 25.9202ZM55.3832 23.16C54.7868 21.2342 55.7907 20.2031 57.4872 19.6778C59.2296 19.1382 60.6351 19.6744 61.0942 21.157L61.1747 21.4168C61.6716 23.0216 60.8752 24.29 59.0106 24.8674C57.3752 25.3738 55.9795 25.0858 55.3832 23.16Z" fill="#FF6F0F"/>
<path d="M72.4744 24.2704C74.3141 24.2348 75.6897 23.3759 76.1254 21.9112L76.2054 21.9097L76.2466 24.0373L77.2704 24.0174L77.1746 19.0744C77.1408 17.3307 76.0904 15.9748 73.6908 16.0213C71.2593 16.0684 69.9099 17.4548 69.9421 19.1185L69.9434 19.1825L71.0791 19.1605L71.0779 19.0965C71.0509 17.7048 71.935 17.0795 73.6307 17.0467C75.3583 17.0132 76.042 17.608 76.0718 19.1438L76.0835 19.7516L72.3323 20.2404C70.8637 20.4289 69.8027 21.0096 69.8278 22.3053C69.8526 23.5851 70.9227 24.3005 72.4744 24.2704ZM70.9621 22.2033C70.9463 21.3875 71.5166 21.0884 72.6982 20.9534L76.0981 20.5035L76.0993 20.5675C76.1362 22.4711 74.6329 23.3484 72.7133 23.3856C71.5135 23.4089 70.9776 23.0032 70.9621 22.2033Z" fill="#FF6F0F"/>
<path d="M85.0815 25.0455L86.0703 21.3516C86.5958 19.3887 87.8715 18.521 89.7262 19.0175C91.4727 19.485 91.986 20.5997 91.564 22.1762L90.4138 26.4729L91.5112 26.7666L92.7027 22.3153C93.1868 20.507 92.5299 18.6914 90.3815 18.1163C88.4805 17.6074 87.0635 18.5697 86.4532 19.7977L86.3759 19.777L87.0172 17.3814L86.028 17.1166L83.9842 24.7518L85.0815 25.0455Z" fill="#FF6F0F"/>
<path d="M103.111 22.3266L103.968 20.7348L102.968 20.1961L102.111 21.7879L103.111 22.3266ZM98.8848 30.1729L102.633 23.214L101.633 22.6754L97.8847 29.6342L98.8848 30.1729Z" fill="#FF6F0F"/>
<path d="M108.118 36.8001C109.768 38.2668 111.932 38.434 113.196 37.0108L113.281 36.9152L112.444 36.1712L112.38 36.2429C111.445 37.2954 110.148 37.2131 108.797 36.0121C107.218 34.6091 107.291 33.1542 108.577 31.707C109.863 30.2599 111.3 30.0166 112.878 31.4196C114.23 32.6206 114.464 33.8988 113.528 34.9513L113.465 35.023L114.302 35.767L114.387 35.6714C115.652 34.2482 115.231 32.1196 113.581 30.6528C111.691 28.9735 109.322 29.1585 107.728 30.9524C106.134 32.7464 106.228 35.1208 108.118 36.8001Z" fill="#FF6F0F"/>
<path d="M116.175 45.5363L117.983 44.2415L117.164 43.0967L115.355 44.3916L116.175 45.5363Z" fill="#FF6F0F"/>
<path d="M123.983 63.4372C124.698 66.5727 127.314 68.257 130.574 67.5133C133.834 66.7696 135.461 64.1174 134.746 60.9819C134.038 57.8776 131.422 56.1933 128.162 56.937C124.901 57.6807 123.274 60.333 123.983 63.4372ZM125.059 63.1917C124.458 60.5554 125.589 58.7546 128.428 58.107C131.267 57.4593 133.068 58.5912 133.67 61.2274C134.275 63.8793 133.146 65.6957 130.307 66.3434C127.468 66.991 125.664 65.8436 125.059 63.1917Z" fill="#FF6F0F"/>
<path d="M125.429 76.1449L129.708 76.4292C131.48 76.5469 132.439 77.3162 132.333 78.9126C132.242 80.2856 131.55 80.8009 130.209 80.7118L129.602 80.6715L129.527 81.805L130.309 81.857C131.778 81.9545 133.172 81.2454 133.293 79.4254C133.402 77.781 132.408 76.817 131.163 76.4937L131.168 76.4139L133.323 76.5571L133.391 75.5354L125.505 75.0114L125.429 76.1449Z" fill="#FF6F0F"/>
<path d="M123.374 91.0534C122.77 92.7745 123.229 94.1733 124.27 94.878L124.244 94.9535L122.296 94.2699C120.439 93.6181 120.115 92.6566 120.794 90.7241C121.377 89.0635 122.197 88.368 123.511 88.8291L123.887 87.7572C122.151 87.1478 120.599 88.3326 119.889 90.3556C119.099 92.605 119.52 94.4992 121.98 95.363L128.729 97.7317L129.068 96.7655L127.15 96.0925L127.177 96.017C128.612 96.1814 129.786 95.2031 130.337 93.633C131.142 91.3383 130.171 89.4203 128.133 88.7049C126.095 87.9895 124.153 88.8342 123.374 91.0534ZM127.756 89.7768C129.659 90.4445 129.889 91.865 129.301 93.5407C128.697 95.2618 127.429 96.0716 125.965 95.5576L125.708 95.4675C124.123 94.9111 123.578 93.5159 124.225 91.6741C124.792 90.0587 125.854 89.109 127.756 89.7768Z" fill="#FF6F0F"/>
<path d="M116.688 102.846C115.621 104.345 115.492 105.962 116.409 107.184L116.363 107.249L114.629 106.015L114.035 106.849L118.063 109.716C119.484 110.727 121.199 110.691 122.591 108.735C124.001 106.754 123.691 104.844 122.335 103.879L122.283 103.842L121.624 104.768L121.676 104.805C122.81 105.612 122.786 106.695 121.803 108.077C120.801 109.484 119.916 109.679 118.664 108.789L118.169 108.436L120.01 105.132C120.733 103.84 120.899 102.641 119.843 101.89C118.8 101.148 117.588 101.581 116.688 102.846ZM119.249 102.862C119.914 103.335 119.815 103.971 119.22 105.001L117.556 108L117.504 107.963C115.953 106.859 116.143 105.129 117.257 103.565C117.952 102.587 118.597 102.398 119.249 102.862Z" fill="#FF6F0F"/>
<path d="M108.557 112.513L110.936 115.507C112.2 117.098 112.137 118.639 110.634 119.834C109.219 120.958 108.017 120.707 107.002 119.429L104.235 115.947L103.346 116.653L106.212 120.261C107.377 121.727 109.227 122.28 110.968 120.897C112.509 119.673 112.58 117.961 111.956 116.74L112.019 116.69L113.562 118.632L114.364 117.995L109.447 111.806L108.557 112.513Z" fill="#FF6F0F"/>
<path d="M100.006 128.616L100.774 130.253L101.803 129.77L101.034 128.133L100.006 128.616ZM96.2191 120.548L99.5777 127.703L100.606 127.221L97.2475 120.066L96.2191 120.548Z" fill="#FF6F0F"/>
<path d="M85.3967 124.019C83.2355 124.472 81.813 126.11 82.2032 127.974L82.2294 128.099L83.3256 127.869L83.306 127.776C83.0175 126.397 83.8558 125.405 85.6254 125.034C87.6926 124.601 88.818 125.526 89.2148 127.421C89.6115 129.316 88.9516 130.615 86.8844 131.048C85.1148 131.418 83.9486 130.845 83.6601 129.467L83.6404 129.373L82.5442 129.602L82.5704 129.728C82.9606 131.591 84.9207 132.521 87.0819 132.069C89.5562 131.551 90.8184 129.537 90.3267 127.188C89.8349 124.839 87.871 123.501 85.3967 124.019Z" fill="#FF6F0F"/>
<path d="M73.5794 125.291L73.5428 127.515L74.9506 127.538L74.9872 125.314L73.5794 125.291Z" fill="#FF6F0F"/>
<circle cx="74.5" cy="74.5" r="42.5" fill="#8D7450"/>
<path d="M50.968 83V66.92H47.68C46.888 68.504 45.688 68.912 43.912 68.912H43.24V71.384H47.368V83H50.968ZM60.5697 83.24C65.7297 83.24 68.6097 79.976 68.6097 74.96C68.6097 69.968 65.7297 66.68 60.5697 66.68C55.3857 66.68 52.5297 69.968 52.5297 74.96C52.5297 79.976 55.3857 83.24 60.5697 83.24ZM60.5697 79.736C57.4977 79.736 56.3937 78.416 56.3937 74.96C56.3937 71.504 57.4977 70.184 60.5697 70.184C63.6177 70.184 64.7457 71.504 64.7457 74.96C64.7457 78.416 63.6177 79.736 60.5697 79.736ZM77.8197 83.24C82.9797 83.24 85.8597 79.976 85.8597 74.96C85.8597 69.968 82.9797 66.68 77.8197 66.68C72.6357 66.68 69.7797 69.968 69.7797 74.96C69.7797 79.976 72.6357 83.24 77.8197 83.24ZM77.8197 79.736C74.7477 79.736 73.6437 78.416 73.6437 74.96C73.6437 71.504 74.7477 70.184 77.8197 70.184C80.8677 70.184 81.9957 71.504 81.9957 74.96C81.9957 78.416 80.8677 79.736 77.8197 79.736ZM91.0137 74.672C93.7017 74.672 95.2617 73.064 95.2617 70.664C95.2617 68.264 93.7017 66.632 91.0137 66.632C88.3497 66.632 86.7897 68.264 86.7897 70.664C86.7897 73.064 88.3497 74.672 91.0137 74.672ZM91.1097 83L104.766 66.92H101.286L87.6297 83H91.1097ZM91.0137 72.32C89.7657 72.32 89.3577 71.864 89.3577 70.664C89.3577 69.464 89.7657 68.984 91.0137 68.984C92.2857 68.984 92.6937 69.464 92.6937 70.664C92.6937 71.864 92.2857 72.32 91.0137 72.32ZM101.358 83.264C104.022 83.264 105.606 81.656 105.606 79.256C105.606 76.856 104.022 75.248 101.358 75.248C98.6937 75.248 97.1097 76.856 97.1097 79.256C97.1097 81.656 98.6937 83.264 101.358 83.264ZM101.358 80.912C100.11 80.912 99.6777 80.456 99.6777 79.256C99.6777 78.056 100.11 77.576 101.358 77.576C102.606 77.576 103.038 78.056 103.038 79.256C103.038 80.456 102.606 80.912 101.358 80.912Z" fill="white"/>
</svg>
