<svg width="24" height="24" viewBox="0 0 24 24" fill="none" xmlns="http://www.w3.org/2000/svg">
<mask id="mask0_1_1367" style="mask-type:luminance" maskUnits="userSpaceOnUse" x="10" y="9" width="8" height="9">
<path fill-rule="evenodd" clip-rule="evenodd" d="M10.3618 9.71045H17.6643V17.6666H10.3618V9.71045Z" fill="white"/>
</mask>
<g mask="url(#mask0_1_1367)">
<path fill-rule="evenodd" clip-rule="evenodd" d="M17.6606 17.3273C17.6621 16.0531 17.6686 14.779 17.6583 13.5049C17.6537 12.9468 17.6337 12.3873 17.5164 11.8381C17.3242 10.9375 16.8915 10.2345 16.0321 9.90664C15.4587 9.68794 14.8592 9.67386 14.2605 9.75864C13.7575 9.82986 13.2942 10.0214 12.872 10.3775C12.872 10.248 12.8716 10.1621 12.8721 10.0763C12.8734 9.88352 12.7837 9.79641 12.599 9.79729C11.9423 9.80035 11.2857 9.79958 10.629 9.79781C10.4483 9.79729 10.3616 9.87194 10.3618 10.0751C10.3653 12.52 10.364 14.965 10.3641 17.4099C10.3641 17.5037 10.3518 17.6034 10.4603 17.6496C10.4717 17.6647 12.8424 17.6704 12.8423 17.655C12.9978 17.5851 12.9499 17.4377 12.9502 17.3177C12.9524 16.1118 12.9451 14.9059 12.9516 13.7C12.9536 13.323 12.9675 12.942 13.1304 12.5909C13.3234 12.1748 13.7228 11.9946 14.2854 12.0684C14.6724 12.1191 14.9195 12.3811 14.9964 12.8377C15.0249 13.0064 15.0462 13.1788 15.0472 13.3497C15.0547 14.6761 15.0557 16.0026 15.0612 17.329C15.0618 17.4515 15.025 17.5961 15.1828 17.6577C15.1774 17.6751 17.5644 17.6646 17.565 17.6477C17.6935 17.5728 17.6604 17.4422 17.6606 17.3273Z" fill="#535353"/>
</g>
<path fill-rule="evenodd" clip-rule="evenodd" d="M8.70768 9.66653C8.01452 9.67234 7.32121 9.67107 6.628 9.66722C6.43213 9.66606 6.33509 9.73367 6.33545 9.9566C6.33979 12.4424 6.3381 14.9281 6.33862 17.4139C6.33867 17.5085 6.32417 17.6125 6.44071 17.6556C6.44515 17.6707 8.88889 17.6698 8.89548 17.6547C9.02412 17.6047 8.99818 17.488 8.99824 17.3872C8.99936 14.919 8.99737 12.4507 9.00211 9.98248C9.00247 9.7585 8.9258 9.66468 8.70768 9.66653Z" fill="#535353"/>
<path fill-rule="evenodd" clip-rule="evenodd" d="M7.66876 6.33325C6.93243 6.33325 6.33545 6.93023 6.33545 7.66656C6.33545 8.40299 6.93243 8.99992 7.66876 8.99992C8.40514 8.99992 9.00212 8.40299 9.00212 7.66656C9.00212 6.93023 8.40514 6.33325 7.66876 6.33325Z" fill="#535353"/>
<rect x="0.5" y="0.5" width="23" height="23" rx="11.5" stroke="#FF6F0F" stroke-opacity="0.5"/>
</svg>
