<svg width="79" height="32" viewBox="0 0 79 32" fill="none" xmlns="http://www.w3.org/2000/svg">
<path d="M10.992 24.5C14.592 24.5 16.272 22.772 16.272 20.036C16.272 17.876 14.832 16.388 11.856 16.172V15.956C14.544 15.764 15.6 14.324 15.6 12.332C15.6 9.812 13.824 8.42 10.536 8.42H0.888V24.5H10.992ZM4.488 11.66H10.08C11.424 11.66 12 12.14 12 13.244C12 14.348 11.448 14.804 10.128 14.804H4.488V11.66ZM4.488 17.78H10.56C12.024 17.78 12.624 18.236 12.624 19.508C12.624 20.804 12.024 21.26 10.56 21.26H4.488V17.78ZM30.9669 24.74C36.0789 24.74 38.1189 22.388 38.1189 19.772C38.1189 17.564 36.8229 15.812 33.2229 15.236L28.7109 14.516C27.3669 14.276 26.8389 13.94 26.8389 13.004C26.8389 11.972 27.6309 11.468 30.2229 11.468C33.4149 11.468 34.2069 12.116 34.2069 13.652V13.988H37.8309V13.844C37.8309 10.46 35.5269 8.18 30.5829 8.18C25.1829 8.18 23.2149 10.724 23.2149 13.148C23.2149 15.764 24.9189 17.204 27.7989 17.66L32.3109 18.308C33.9669 18.596 34.5189 18.956 34.5189 19.94C34.5189 21.02 33.8469 21.452 30.9669 21.452C27.7029 21.452 26.9589 20.852 26.9589 19.364V18.932H23.3589V19.076C23.3589 22.82 26.0949 24.74 30.9669 24.74ZM43.185 24.5V18.308H47.241L51.393 24.5H55.713L50.193 16.34L55.785 8.42H51.465L47.193 14.804H43.185V8.42H39.585V24.5H43.185ZM60.2944 24.5V8.42H56.6944V24.5H60.2944ZM65.7788 24.5V16.748L65.6348 13.796H65.8748L67.9148 16.82L73.8428 24.5H77.6828V8.42H74.0828V16.172L74.2508 19.412H73.9868L71.7788 16.028L66.0188 8.42H62.1788V24.5H65.7788Z" fill="#FF860D"/>
<path d="M21.9926 24.5V20.3H17.3606V24.5H21.9926Z" fill="#423E3D"/>
<path d="M58.7109 3.42125L59 3.38319L59.2891 3.42125L59.5584 3.53282L59.7897 3.7103L59.9672 3.9416L60.0788 4.21095L60.1168 4.5L60.0788 4.78905L59.9672 5.0584L59.7897 5.2897L59.5584 5.46718L59.2891 5.57875L59 5.61681L58.7109 5.57875L58.4416 5.46718L58.2103 5.2897L58.0328 5.0584L57.9212 4.78905L57.8832 4.5L57.9212 4.21095L58.0328 3.9416L58.2103 3.7103L58.4416 3.53282L58.7109 3.42125Z" fill="#FF860D" stroke="#423E3D"/>
</svg>
