<svg width="24" height="24" viewBox="0 0 24 24" fill="none" xmlns="http://www.w3.org/2000/svg">
<path d="M19 7.84839C18.4847 8.06701 17.9318 8.21528 17.3509 8.28147C17.9441 7.94137 18.3981 7.40192 18.6133 6.76109C18.0569 7.07605 17.4428 7.30475 16.7884 7.42873C16.2644 6.89346 15.519 6.56006 14.6923 6.56006C13.1062 6.56006 11.8202 7.79143 11.8202 9.30929C11.8202 9.52457 11.8456 9.73482 11.8946 9.93588C9.50801 9.8211 7.39178 8.72627 5.97543 7.06265C5.72784 7.46809 5.58699 7.94051 5.58699 8.44481C5.58699 9.39892 6.0944 10.2408 6.86427 10.7333C6.3936 10.7182 5.95093 10.5943 5.56339 10.3882V10.4225C5.56339 11.7544 6.55371 12.866 7.86682 13.119C7.62624 13.181 7.37255 13.2153 7.11009 13.2153C6.92464 13.2153 6.74529 13.1978 6.56944 13.1642C6.93511 14.2574 7.99543 15.0523 9.25171 15.0741C8.26926 15.8113 7.03048 16.2494 5.68499 16.2494C5.45317 16.2494 5.22482 16.236 5 16.2117C6.27114 16.9933 7.78024 17.4489 9.40218 17.4489C14.6853 17.4489 17.5732 13.2589 17.5732 9.62511L17.5635 9.2691C18.1278 8.88374 18.6159 8.39958 19 7.84839Z" fill="#535353"/>
<rect x="0.5" y="0.5" width="23" height="23" rx="11.5" stroke="#FF6F0F" stroke-opacity="0.5"/>
</svg>
